<svg width="16" height="16" viewBox="0 0 16 16" fill="none" xmlns="http://www.w3.org/2000/svg">
<path d="M10.6647 3.3334L12.6647 5.3334M7.99805 10.0001L13.588 4.39007C13.8506 4.12751 13.9981 3.77139 13.9981 3.40007C13.9981 3.02875 13.8506 2.67264 13.588 2.41007C13.3255 2.14751 12.9694 2 12.598 2C12.2267 2 11.8706 2.14751 11.608 2.41007L5.99805 8.00007V10.0001H7.99805Z" stroke="#F15929" stroke-width="1.33333" stroke-linecap="round" stroke-linejoin="round"/>
<path d="M5.99903 4.71338C4.83306 4.88423 3.77485 5.48975 3.03679 6.40842C2.29872 7.32708 1.93542 8.4909 2.0198 9.6663C2.10418 10.8417 2.62999 11.9417 3.49171 12.7455C4.35343 13.5493 5.48728 13.9975 6.6657 14C7.78779 13.9999 8.87228 13.5956 9.7206 12.8611C10.5689 12.1267 11.1243 11.1112 11.285 10.0007" stroke="#F15929" stroke-width="1.33333" stroke-linecap="round" stroke-linejoin="round"/>
</svg>
